<svg width="14" height="15" viewBox="0 0 14 15" fill="none" xmlns="http://www.w3.org/2000/svg">
<path d="M13.1205 10.5366V12.3257C13.1212 12.4918 13.0872 12.6562 13.0206 12.8084C12.9541 12.9606 12.8565 13.0972 12.7341 13.2095C12.6117 13.3218 12.4672 13.4072 12.3099 13.4605C12.1525 13.5137 11.9858 13.5334 11.8204 13.5185C9.98521 13.3191 8.22239 12.692 6.67358 11.6876C5.23261 10.7719 4.01092 9.55024 3.09527 8.10927C2.08736 6.55342 1.46012 4.78203 1.26436 2.93861C1.24946 2.77369 1.26906 2.60747 1.32191 2.45054C1.37477 2.29361 1.45972 2.1494 1.57136 2.0271C1.683 1.9048 1.81888 1.80709 1.97036 1.74018C2.12183 1.67328 2.28558 1.63864 2.45117 1.63849H4.24033C4.52976 1.63564 4.81035 1.73813 5.0298 1.92686C5.24925 2.11559 5.39259 2.37767 5.4331 2.66427C5.50861 3.23684 5.64866 3.79903 5.85057 4.34011C5.93081 4.55357 5.94817 4.78556 5.90061 5.00859C5.85304 5.23162 5.74254 5.43633 5.58219 5.59849L4.82478 6.35589C5.67377 7.84897 6.91002 9.08522 8.4031 9.93421L9.16051 9.1768C9.32266 9.01645 9.52738 8.90595 9.7504 8.85838C9.97343 8.81082 10.2054 8.82818 10.4189 8.90842C10.96 9.11033 11.5222 9.25038 12.0947 9.32589C12.3844 9.36676 12.649 9.51269 12.8381 9.73591C13.0273 9.95913 13.1278 10.2441 13.1205 10.5366Z" stroke="white" stroke-width="1.59036" stroke-linecap="round" stroke-linejoin="round"/>
</svg>
