<svg width="17" height="16" viewBox="0 0 17 16" fill="none" xmlns="http://www.w3.org/2000/svg">
<circle cx="8.33337" cy="8" r="8" fill="#A80D2C"/>
<path d="M12.3332 9.24084V10.2946C12.3336 10.3925 12.3135 10.4893 12.2742 10.5789C12.2349 10.6686 12.1773 10.749 12.1051 10.8151C12.0329 10.8813 11.9476 10.9316 11.8548 10.963C11.7619 10.9943 11.6635 11.006 11.5659 10.9971C10.4829 10.8797 9.44253 10.5104 8.52849 9.91878C7.6781 9.37947 6.95712 8.65992 6.41674 7.81121C5.82193 6.89485 5.45176 5.85153 5.33623 4.76578C5.32744 4.66865 5.339 4.57075 5.37019 4.47832C5.40139 4.38589 5.45152 4.30096 5.51741 4.22892C5.58329 4.15689 5.66348 4.09934 5.75288 4.05993C5.84227 4.02052 5.9389 4.00013 6.03663 4.00003H7.0925C7.26331 3.99836 7.4289 4.05872 7.55841 4.16988C7.68792 4.28104 7.77251 4.4354 7.79642 4.6042C7.84098 4.94144 7.92363 5.27256 8.04279 5.59125C8.09014 5.71697 8.10039 5.85361 8.07232 5.98497C8.04425 6.11633 7.97904 6.2369 7.88441 6.33241L7.43742 6.77851C7.93845 7.6579 8.66803 8.38603 9.54917 8.88607L9.99616 8.43997C10.0918 8.34553 10.2127 8.28044 10.3443 8.25243C10.4759 8.22441 10.6128 8.23464 10.7388 8.2819C11.0581 8.40082 11.3899 8.48331 11.7278 8.52779C11.8988 8.55186 12.0549 8.6378 12.1665 8.76928C12.2781 8.90075 12.3374 9.06858 12.3332 9.24084Z" stroke="white" stroke-width="0.8" stroke-linecap="round" stroke-linejoin="round"/>
</svg>
